<svg width="320" height="229" viewBox="0 0 320 229" fill="none" xmlns="http://www.w3.org/2000/svg">
<g clip-path="url(#clip0_27_2374)">
<path opacity="0.1" d="M287.353 194.314C284.967 195.548 282.468 196.613 280.002 197.676C270.891 201.536 261.643 205.429 251.855 206.754C233.473 209.208 214.504 202.484 196.443 206.68C181.314 210.183 168.802 220.918 154.022 225.699C147.15 227.921 139.999 228.792 132.785 228.792H131.853C130.96 228.781 130.073 228.758 129.193 228.725C121.878 228.449 114.533 227.363 107.362 225.975C84.7212 221.604 61.6778 213.592 44.3677 198.843C94.7702 189.603 198.594 175.422 287.353 194.314Z" fill="#252223"/>
<path opacity="0.3" d="M304.921 83.7168V62.1992H292.188V83.7168H277.11V50.4318H266.052V25.5521H257.005V0H238.241V25.5521H229.194V50.4318H218.471V20.5089H212.44V5.37939H208.754V20.5089H187.309V115.993H170.89V105.907H160.838V115.993H144.419V83.7168H114.932V62.1992H102.199V83.7168H101.529V125.071H88.1257V100.864H72.0419V125.071H58.6387V50.4318H48.2513V25.5521H10.0524V50.4318H0V181.891H58.6387H101.529H144.419H187.309H218.471H277.11H320V83.7168H304.921Z" fill="#14BD74" fill-opacity="0.5"/>
<path opacity="0.4" d="M20.4398 58.1647H6.36646V66.2338H20.4398V58.1647Z" fill="white"/>
<path opacity="0.4" d="M37.864 66.2338H51.9373V58.1646H37.864V66.2338Z" fill="white"/>
<path opacity="0.4" d="M20.4398 73.9666H6.36646V82.0357H20.4398V73.9666Z" fill="white"/>
<path opacity="0.4" d="M37.864 82.0357H51.9373V73.9666H37.864V82.0357Z" fill="white"/>
<path opacity="0.4" d="M20.4398 89.7686H6.36646V97.8377H20.4398V89.7686Z" fill="white"/>
<path opacity="0.4" d="M37.864 97.8377H51.9373V89.7686H37.864V97.8377Z" fill="white"/>
<path opacity="0.4" d="M20.4398 105.571H6.36646V113.64H20.4398V105.571Z" fill="white"/>
<path opacity="0.4" d="M37.864 113.64H51.9373V105.571H37.864V113.64Z" fill="white"/>
<path opacity="0.4" d="M20.4398 121.373H6.36646V129.442H20.4398V121.373Z" fill="white"/>
<path opacity="0.4" d="M37.864 129.442H51.9373V121.373H37.864V129.442Z" fill="white"/>
<path opacity="0.4" d="M20.4398 137.174H6.36646V145.244H20.4398V137.174Z" fill="white"/>
<path opacity="0.4" d="M37.864 145.244H51.9373V137.175H37.864V145.244Z" fill="white"/>
<path opacity="0.4" d="M20.4398 152.976H6.36646V161.046H20.4398V152.976Z" fill="white"/>
<path opacity="0.4" d="M37.864 161.046H51.9373V152.976H37.864V161.046Z" fill="white"/>
<path opacity="0.4" d="M96.5027 133.14H63.665V137.174H96.5027V133.14Z" fill="white"/>
<path opacity="0.4" d="M96.5027 139.192H63.665V143.226H96.5027V139.192Z" fill="white"/>
<path opacity="0.4" d="M96.5027 145.244H63.665V149.278H96.5027V145.244Z" fill="white"/>
<path opacity="0.4" d="M182.283 135.157H149.445V139.192H182.283V135.157Z" fill="white"/>
<path opacity="0.4" d="M182.283 141.209H149.445V145.244H182.283V141.209Z" fill="white"/>
<path opacity="0.4" d="M182.283 147.261H149.445V151.295H182.283V147.261Z" fill="white"/>
<path opacity="0.4" d="M96.5027 151.295H63.665V155.33H96.5027V151.295Z" fill="white"/>
<path opacity="0.4" d="M96.5027 157.347H63.665V161.382H96.5027V157.347Z" fill="white"/>
<path opacity="0.4" d="M96.5027 163.399H63.665V167.434H96.5027V163.399Z" fill="white"/>
<path opacity="0.4" d="M117.613 91.4497H108.565V103.217H117.613V91.4497Z" fill="white"/>
<path opacity="0.4" d="M128.335 103.217H137.382V91.4497H128.335V103.217Z" fill="white"/>
<path opacity="0.4" d="M117.613 110.278H108.565V122.045H117.613V110.278Z" fill="white"/>
<path opacity="0.4" d="M128.335 122.045H137.382V110.278H128.335V122.045Z" fill="white"/>
<path opacity="0.4" d="M117.613 129.105H108.565V140.873H117.613V129.105Z" fill="white"/>
<path opacity="0.4" d="M128.335 140.873H137.382V129.105H128.335V140.873Z" fill="white"/>
<path opacity="0.4" d="M117.613 147.933H108.565V159.701H117.613V147.933Z" fill="white"/>
<path opacity="0.4" d="M128.335 159.701H137.382V147.933H128.335V159.701Z" fill="white"/>
<path opacity="0.4" d="M199.372 28.2418H187.309V43.7076H199.372V28.2418Z" fill="white"/>
<path opacity="0.4" d="M199.372 50.4318H187.309V65.8976H199.372V50.4318Z" fill="white"/>
<path opacity="0.4" d="M199.372 72.6218H187.309V88.0875H199.372V72.6218Z" fill="white"/>
<path opacity="0.4" d="M199.372 94.8118H187.309V110.278H199.372V94.8118Z" fill="white"/>
<path opacity="0.4" d="M199.372 117.002H187.309V132.468H199.372V117.002Z" fill="white"/>
<path opacity="0.4" d="M199.372 139.192H187.309V154.658H199.372V139.192Z" fill="white"/>
<path opacity="0.4" d="M270.241 59.8457H225.34V72.958H270.241V59.8457Z" fill="white"/>
<path opacity="0.4" d="M270.408 88.0875H225.508V101.2H270.408V88.0875Z" fill="white"/>
<path opacity="0.4" d="M270.576 116.329H225.675V129.442H270.576V116.329Z" fill="white"/>
<path opacity="0.4" d="M270.744 144.571H225.843V157.683H270.744V144.571Z" fill="white"/>
<path opacity="0.4" d="M16.0837 32.6126H10.0522V45.3886H16.0837V32.6126Z" fill="white"/>
<path opacity="0.4" d="M320 91.4497H304.921V110.95H320V91.4497Z" fill="white"/>
<path opacity="0.4" d="M320 119.691H304.921V139.192H320V119.691Z" fill="white"/>
<path opacity="0.4" d="M320 147.933H304.921V167.434H320V147.933Z" fill="white"/>
<path d="M16.6434 161.23C16.6434 161.23 -9.73737 177.2 38.8926 201.788C38.8926 201.788 49.6151 181.83 37.76 165.557C35.4608 162.386 32.082 160.17 28.2636 159.33C24.4453 158.491 20.4527 159.085 17.0421 161.002L16.6434 161.23Z" fill="#14BD74" fill-opacity="0.5"/>
<path d="M16.9485 160.894C16.9485 160.894 39.5227 178.226 38.8928 201.788" stroke="#535461" stroke-miterlimit="10"/>
<path d="M40.1191 202.696C40.1191 202.696 31.8527 174.534 41.6705 153.807C45.7919 145.109 47.159 135.342 45.2558 125.901C44.3457 121.419 43.0278 117.03 41.3186 112.789" stroke="#535461" stroke-width="2" stroke-miterlimit="10"/>
<path d="M47.4137 99.7071C47.4137 103.16 41.1846 113.156 41.1846 113.156C41.1846 113.156 34.9555 103.147 34.9555 99.7071C34.9363 98.8743 35.0831 98.0461 35.3874 97.2711C35.6917 96.4961 36.1474 95.79 36.7275 95.1942C37.3077 94.5983 38.0007 94.1249 38.7659 93.8017C39.531 93.4785 40.3528 93.312 41.183 93.312C42.0131 93.312 42.8349 93.4785 43.6001 93.8017C44.3652 94.1249 45.0582 94.5983 45.6384 95.1942C46.2186 95.79 46.6742 96.4961 46.9785 97.2711C47.2828 98.0461 47.4296 98.8743 47.4104 99.7071H47.4137Z" fill="#14BD74" fill-opacity="0.5"/>
<path d="M57.7207 118.824C55.8509 121.722 45.2021 126.725 45.2021 126.725C45.2021 126.725 45.3965 114.927 47.2662 112.029C48.1833 110.683 49.5883 109.75 51.1815 109.429C52.7746 109.108 54.4297 109.424 55.7938 110.31C57.1578 111.196 58.1227 112.582 58.4827 114.172C58.8427 115.762 58.5693 117.43 57.7207 118.821V118.824Z" fill="#14BD74" fill-opacity="0.5"/>
<path d="M57.2683 151.494C54.1957 153.047 42.488 151.975 42.488 151.975C42.488 151.975 48.5898 141.888 51.6625 140.335C53.1327 139.627 54.8208 139.526 56.3643 140.054C57.9078 140.581 59.1837 141.695 59.918 143.156C60.6523 144.617 60.7865 146.308 60.2917 147.867C59.7969 149.426 58.7126 150.728 57.2717 151.494H57.2683Z" fill="#14BD74" fill-opacity="0.5"/>
<path d="M51.3809 176.135C48.6165 178.186 36.8921 179.114 36.8921 179.114C36.8921 179.114 41.2079 168.14 43.9723 166.085C44.6294 165.59 45.3778 165.229 46.1744 165.025C46.971 164.821 47.8 164.777 48.6137 164.895C49.4273 165.014 50.2095 165.293 50.915 165.717C51.6205 166.141 52.2355 166.7 52.7245 167.363C53.2134 168.027 53.5667 168.781 53.7639 169.581C53.9611 170.382 53.9983 171.215 53.8734 172.03C53.7485 172.845 53.4639 173.628 53.0361 174.332C52.6083 175.037 52.0458 175.649 51.3809 176.135Z" fill="#14BD74" fill-opacity="0.5"/>
<path d="M32.1239 127.394C34.5901 129.798 46.0867 132.289 46.0867 132.289C46.0867 132.289 43.272 120.835 40.8058 118.427C40.2241 117.833 39.5297 117.361 38.7635 117.039C37.9973 116.717 37.1747 116.553 36.3442 116.555C35.5137 116.557 34.692 116.726 33.9274 117.051C33.1628 117.377 32.4708 117.852 31.8921 118.45C31.3134 119.048 30.8596 119.755 30.5575 120.532C30.2554 121.308 30.1111 122.137 30.133 122.97C30.1549 123.803 30.3427 124.623 30.6851 125.382C31.0276 126.142 31.518 126.824 32.1273 127.391L32.1239 127.394Z" fill="#14BD74" fill-opacity="0.5"/>
<path d="M25.6032 156.298C28.6759 157.852 40.3835 156.779 40.3835 156.779C40.3835 156.779 34.2817 146.693 31.209 145.139C29.7388 144.432 28.0507 144.331 26.5072 144.858C24.9637 145.386 23.6878 146.499 22.9535 147.96C22.2192 149.421 22.0851 151.112 22.5798 152.671C23.0746 154.23 24.1589 155.532 25.5998 156.298H25.6032Z" fill="#14BD74" fill-opacity="0.5"/>
<path d="M23.1071 185.266C25.8715 187.317 37.5959 188.245 37.5959 188.245C37.5959 188.245 33.2801 177.268 30.5123 175.217C29.1833 174.247 27.5261 173.843 25.9017 174.094C24.2774 174.344 22.8175 175.229 21.8401 176.554C20.8628 177.88 20.4472 179.54 20.6839 181.171C20.9205 182.803 21.7903 184.275 23.1037 185.266H23.1071Z" fill="#14BD74" fill-opacity="0.5"/>
<path opacity="0.25" d="M47.4137 99.7071C47.4137 103.16 41.1846 113.156 41.1846 113.156C41.1846 113.156 34.9555 103.147 34.9555 99.7071C34.9363 98.8743 35.0831 98.0461 35.3874 97.2711C35.6917 96.4961 36.1474 95.79 36.7275 95.1942C37.3077 94.5983 38.0007 94.1249 38.7659 93.8017C39.531 93.4785 40.3528 93.312 41.183 93.312C42.0131 93.312 42.8349 93.4785 43.6001 93.8017C44.3652 94.1249 45.0582 94.5983 45.6384 95.1942C46.2186 95.79 46.6742 96.4961 46.9785 97.2711C47.2828 98.0461 47.4296 98.8743 47.4104 99.7071H47.4137Z" fill="black"/>
<path opacity="0.25" d="M57.7207 118.824C55.8509 121.722 45.2021 126.725 45.2021 126.725C45.2021 126.725 45.3965 114.927 47.2662 112.029C48.1833 110.683 49.5883 109.75 51.1815 109.429C52.7746 109.108 54.4297 109.424 55.7938 110.31C57.1578 111.196 58.1227 112.582 58.4827 114.172C58.8427 115.762 58.5693 117.43 57.7207 118.821V118.824Z" fill="black"/>
<path opacity="0.25" d="M57.2683 151.494C54.1957 153.047 42.488 151.975 42.488 151.975C42.488 151.975 48.5898 141.888 51.6625 140.335C53.1327 139.627 54.8208 139.526 56.3643 140.054C57.9078 140.581 59.1837 141.695 59.918 143.156C60.6523 144.617 60.7865 146.308 60.2917 147.867C59.7969 149.426 58.7126 150.728 57.2717 151.494H57.2683Z" fill="black"/>
<path opacity="0.25" d="M51.3809 176.135C48.6165 178.186 36.8921 179.114 36.8921 179.114C36.8921 179.114 41.2079 168.14 43.9723 166.085C44.6294 165.59 45.3778 165.229 46.1744 165.025C46.971 164.821 47.8 164.777 48.6137 164.895C49.4273 165.014 50.2095 165.293 50.915 165.717C51.6205 166.141 52.2355 166.7 52.7245 167.363C53.2134 168.027 53.5667 168.781 53.7639 169.581C53.9611 170.382 53.9983 171.215 53.8734 172.03C53.7485 172.845 53.4639 173.628 53.0361 174.332C52.6083 175.037 52.0458 175.649 51.3809 176.135Z" fill="black"/>
<path opacity="0.25" d="M32.1239 127.394C34.5901 129.798 46.0867 132.289 46.0867 132.289C46.0867 132.289 43.272 120.835 40.8058 118.427C40.2241 117.833 39.5297 117.361 38.7635 117.039C37.9973 116.717 37.1747 116.553 36.3442 116.555C35.5137 116.557 34.692 116.726 33.9274 117.051C33.1628 117.377 32.4708 117.852 31.8921 118.45C31.3134 119.048 30.8596 119.755 30.5575 120.532C30.2554 121.308 30.1111 122.137 30.133 122.97C30.1549 123.803 30.3427 124.623 30.6851 125.382C31.0276 126.142 31.518 126.824 32.1273 127.391L32.1239 127.394Z" fill="black"/>
<path opacity="0.25" d="M25.6032 156.298C28.6759 157.852 40.3835 156.779 40.3835 156.779C40.3835 156.779 34.2817 146.693 31.209 145.139C29.7388 144.432 28.0507 144.331 26.5072 144.858C24.9637 145.386 23.6878 146.499 22.9535 147.96C22.2192 149.421 22.0851 151.112 22.5798 152.671C23.0746 154.23 24.1589 155.532 25.5998 156.298H25.6032Z" fill="black"/>
<path opacity="0.25" d="M23.1071 185.266C25.8715 187.317 37.5959 188.245 37.5959 188.245C37.5959 188.245 33.2801 177.268 30.5123 175.217C29.1833 174.247 27.5261 173.843 25.9017 174.094C24.2774 174.344 22.8175 175.229 21.8401 176.554C20.8628 177.88 20.4472 179.54 20.6839 181.171C20.9205 182.803 21.7903 184.275 23.1037 185.266H23.1071Z" fill="black"/>
<path d="M298.146 195.423C298.146 195.423 289.88 167.262 299.698 146.535C303.819 137.837 305.186 128.07 303.283 118.629C302.373 114.147 301.055 109.758 299.346 105.517" stroke="#535461" stroke-width="2" stroke-miterlimit="10"/>
<path d="M305.454 92.4347C305.454 95.8876 299.225 105.883 299.225 105.883C299.225 105.883 292.996 95.8742 292.996 92.4347C292.977 91.602 293.124 90.7738 293.428 89.9988C293.732 89.2237 294.188 88.5176 294.768 87.9218C295.348 87.326 296.041 86.8526 296.806 86.5293C297.572 86.2061 298.393 86.0396 299.223 86.0396C300.054 86.0396 300.875 86.2061 301.641 86.5293C302.406 86.8526 303.099 87.326 303.679 87.9218C304.259 88.5176 304.715 89.2237 305.019 89.9988C305.323 90.7738 305.47 91.602 305.451 92.4347H305.454Z" fill="#14BD74" fill-opacity="0.5"/>
<path d="M315.748 111.552C313.878 114.45 303.229 119.453 303.229 119.453C303.229 119.453 303.424 107.655 305.293 104.757C305.727 104.046 306.299 103.429 306.974 102.943C307.65 102.456 308.415 102.111 309.226 101.926C310.036 101.741 310.875 101.721 311.694 101.867C312.512 102.012 313.293 102.321 313.991 102.774C314.689 103.228 315.289 103.816 315.756 104.506C316.224 105.196 316.549 105.972 316.713 106.79C316.876 107.607 316.875 108.45 316.71 109.267C316.544 110.084 316.217 110.86 315.748 111.548V111.552Z" fill="#14BD74" fill-opacity="0.5"/>
<path d="M315.299 144.222C312.226 145.775 300.519 144.702 300.519 144.702C300.519 144.702 306.62 134.616 309.693 133.063C311.163 132.355 312.851 132.254 314.395 132.782C315.938 133.309 317.214 134.423 317.949 135.884C318.683 137.344 318.817 139.036 318.322 140.595C317.827 142.154 316.743 143.456 315.302 144.222H315.299Z" fill="#14BD74" fill-opacity="0.5"/>
<path d="M309.411 168.862C306.647 170.913 294.923 171.841 294.923 171.841C294.923 171.841 299.238 160.867 302.003 158.813C303.332 157.843 304.989 157.439 306.613 157.69C308.238 157.94 309.698 158.825 310.675 160.151C311.652 161.476 312.068 163.136 311.831 164.768C311.595 166.399 310.725 167.871 309.411 168.862Z" fill="#14BD74" fill-opacity="0.5"/>
<path d="M290.151 120.112C292.617 122.516 304.114 125.007 304.114 125.007C304.114 125.007 301.299 113.552 298.833 111.145C297.648 109.99 296.054 109.354 294.402 109.378C292.75 109.402 291.175 110.084 290.024 111.273C288.873 112.462 288.239 114.061 288.263 115.719C288.287 117.376 288.966 118.957 290.151 120.112Z" fill="#14BD74" fill-opacity="0.5"/>
<path d="M283.644 149.026C286.717 150.579 298.424 149.507 298.424 149.507C298.424 149.507 292.322 139.42 289.25 137.867C287.781 137.17 286.099 137.077 284.562 137.607C283.026 138.137 281.756 139.248 281.025 140.704C280.294 142.16 280.158 143.845 280.648 145.4C281.137 146.954 282.212 148.256 283.644 149.026Z" fill="#14BD74" fill-opacity="0.5"/>
<path d="M281.134 177.994C283.899 180.045 295.623 180.973 295.623 180.973C295.623 180.973 291.307 169.999 288.543 167.945C287.214 166.975 285.557 166.571 283.932 166.821C282.308 167.072 280.848 167.956 279.871 169.282C278.893 170.608 278.478 172.267 278.714 173.899C278.951 175.531 279.821 177.003 281.134 177.994Z" fill="#14BD74" fill-opacity="0.5"/>
<path d="M260.859 192.683C260.859 192.683 256.415 177.554 261.693 166.412C263.935 161.754 264.611 156.492 263.62 151.416C263.13 149.011 262.423 146.656 261.505 144.38" stroke="#535461" stroke-width="2" stroke-miterlimit="10"/>
<path d="M264.786 137.336C264.786 139.192 261.435 144.568 261.435 144.568C261.435 144.568 258.084 139.188 258.084 137.336C258.084 136.444 258.437 135.589 259.066 134.958C259.694 134.328 260.546 133.974 261.435 133.974C262.324 133.974 263.176 134.328 263.804 134.958C264.433 135.589 264.786 136.444 264.786 137.336Z" fill="#14BD74" fill-opacity="0.5"/>
<path d="M270.318 147.61C269.313 149.167 263.59 151.857 263.59 151.857C263.59 151.857 263.693 145.516 264.699 143.959C264.927 143.567 265.233 143.225 265.597 142.955C265.961 142.684 266.375 142.491 266.816 142.385C267.257 142.28 267.714 142.266 268.16 142.343C268.606 142.42 269.032 142.587 269.413 142.834C269.793 143.081 270.119 143.403 270.372 143.78C270.624 144.157 270.798 144.582 270.883 145.028C270.968 145.475 270.961 145.933 270.864 146.377C270.767 146.821 270.581 147.241 270.318 147.61Z" fill="#14BD74" fill-opacity="0.5"/>
<path d="M270.077 165.164C268.425 165.998 262.132 165.423 262.132 165.423C262.132 165.423 265.413 160.003 267.061 159.17C267.848 158.813 268.742 158.775 269.557 159.063C270.371 159.352 271.043 159.945 271.432 160.719C271.821 161.493 271.898 162.388 271.645 163.217C271.392 164.045 270.831 164.744 270.077 165.168V165.164Z" fill="#14BD74" fill-opacity="0.5"/>
<path d="M266.91 178.407C265.423 179.51 259.123 180.008 259.123 180.008C259.123 180.008 261.442 174.111 262.93 173.008C263.645 172.529 264.518 172.344 265.365 172.493C266.213 172.641 266.971 173.111 267.483 173.805C267.995 174.499 268.221 175.365 268.114 176.221C268.008 177.078 267.576 177.861 266.91 178.407Z" fill="#14BD74" fill-opacity="0.5"/>
<path d="M256.563 152.217C257.903 153.508 264.065 154.849 264.065 154.849C264.065 154.849 262.554 148.693 261.227 147.402C260.917 147.07 260.543 146.805 260.128 146.622C259.713 146.439 259.265 146.343 258.812 146.339C258.359 146.335 257.909 146.423 257.491 146.598C257.073 146.773 256.694 147.032 256.378 147.358C256.063 147.684 255.816 148.072 255.654 148.496C255.491 148.921 255.416 149.374 255.434 149.829C255.451 150.283 255.56 150.729 255.754 151.14C255.948 151.551 256.223 151.919 256.563 152.22V152.217Z" fill="#14BD74" fill-opacity="0.5"/>
<path d="M253.058 167.75C254.71 168.583 261.003 168.009 261.003 168.009C261.003 168.009 257.722 162.589 256.074 161.755C255.287 161.398 254.392 161.36 253.578 161.649C252.763 161.938 252.091 162.531 251.702 163.305C251.313 164.078 251.237 164.973 251.49 165.802C251.742 166.631 252.304 167.33 253.058 167.753V167.75Z" fill="#14BD74" fill-opacity="0.5"/>
<path d="M251.718 183.32C253.205 184.422 259.505 184.92 259.505 184.92C259.505 184.92 257.173 179.019 255.698 177.917C254.982 177.428 254.106 177.237 253.252 177.382C252.399 177.528 251.634 178 251.12 178.698C250.605 179.397 250.38 180.268 250.491 181.13C250.603 181.991 251.042 182.776 251.718 183.32Z" fill="#14BD74" fill-opacity="0.5"/>
<path opacity="0.1" d="M88.6887 16.0306H86.3834C86.6015 16.0406 86.8193 16.0061 87.0237 15.9292C87.2281 15.8524 87.4149 15.7347 87.5727 15.5834C87.7305 15.4321 87.8561 15.2503 87.942 15.0489C88.0278 14.8475 88.072 14.6307 88.072 14.4117C88.072 14.1927 88.0278 13.9759 87.942 13.7746C87.8561 13.5732 87.7305 13.3913 87.5727 13.24C87.4149 13.0887 87.2281 12.9711 87.0237 12.8942C86.8193 12.8174 86.6015 12.7829 86.3834 12.7929H67.7095C67.2943 12.8118 66.9024 12.9907 66.6153 13.2922C66.3281 13.5937 66.1679 13.9947 66.1679 14.4117C66.1679 14.8287 66.3281 15.2297 66.6153 15.5312C66.9024 15.8327 67.2943 16.0116 67.7095 16.0306H70.0148C69.7967 16.0206 69.5789 16.0551 69.3745 16.1319C69.1701 16.2088 68.9834 16.3264 68.8255 16.4777C68.6677 16.6291 68.5421 16.8109 68.4562 17.0123C68.3704 17.2137 68.3262 17.4304 68.3262 17.6494C68.3262 17.8685 68.3704 18.0852 68.4562 18.2866C68.5421 18.488 68.6677 18.6698 68.8255 18.8211C68.9834 18.9725 69.1701 19.0901 69.3745 19.1669C69.5789 19.2438 69.7967 19.2783 70.0148 19.2683H66.788C66.5699 19.2583 66.3521 19.2928 66.1477 19.3697C65.9433 19.4465 65.7565 19.5642 65.5987 19.7155C65.4409 19.8668 65.3153 20.0486 65.2294 20.25C65.1436 20.4514 65.0994 20.6681 65.0994 20.8872C65.0994 21.1062 65.1436 21.3229 65.2294 21.5243C65.3153 21.7257 65.4409 21.9076 65.5987 22.0589C65.7565 22.2102 65.9433 22.3278 66.1477 22.4047C66.3521 22.4815 66.5699 22.516 66.788 22.506H85.4619C85.68 22.516 85.8978 22.4815 86.1022 22.4047C86.3066 22.3278 86.4934 22.2102 86.6512 22.0589C86.809 21.9076 86.9347 21.7257 87.0205 21.5243C87.1063 21.3229 87.1506 21.1062 87.1506 20.8872C87.1506 20.6681 87.1063 20.4514 87.0205 20.25C86.9347 20.0486 86.809 19.8668 86.6512 19.7155C86.4934 19.5642 86.3066 19.4465 86.1022 19.3697C85.8978 19.2928 85.68 19.2583 85.4619 19.2683H88.6887C88.9068 19.2783 89.1246 19.2438 89.329 19.1669C89.5334 19.0901 89.7202 18.9725 89.878 18.8211C90.0359 18.6698 90.1615 18.488 90.2473 18.2866C90.3331 18.0852 90.3774 17.8685 90.3774 17.6494C90.3774 17.4304 90.3331 17.2137 90.2473 17.0123C90.1615 16.8109 90.0359 16.6291 89.878 16.4777C89.7202 16.3264 89.5334 16.2088 89.329 16.1319C89.1246 16.0551 88.9068 16.0206 88.6887 16.0306Z" fill="#252223"/>
<path opacity="0.1" d="M171.118 56.7122H168.813C169.031 56.7222 169.248 56.6877 169.453 56.6109C169.657 56.534 169.844 56.4164 170.002 56.2651C170.16 56.1137 170.285 55.9319 170.371 55.7305C170.457 55.5291 170.501 55.3124 170.501 55.0934C170.501 54.8743 170.457 54.6576 170.371 54.4562C170.285 54.2548 170.16 54.073 170.002 53.9217C169.844 53.7704 169.657 53.6527 169.453 53.5759C169.248 53.499 169.031 53.4645 168.813 53.4745H150.139C149.723 53.4935 149.332 53.6723 149.044 53.9739C148.757 54.2754 148.597 54.6763 148.597 55.0934C148.597 55.5104 148.757 55.9113 149.044 56.2129C149.332 56.5144 149.723 56.6932 150.139 56.7122H152.444C152.226 56.7022 152.008 56.7367 151.804 56.8136C151.599 56.8904 151.413 57.0081 151.255 57.1594C151.097 57.3107 150.971 57.4925 150.885 57.6939C150.8 57.8953 150.755 58.112 150.755 58.3311C150.755 58.5501 150.8 58.7669 150.885 58.9682C150.971 59.1696 151.097 59.3515 151.255 59.5028C151.413 59.6541 151.599 59.7717 151.804 59.8486C152.008 59.9254 152.226 59.9599 152.444 59.9499H149.217C148.999 59.94 148.781 59.9744 148.577 60.0513C148.373 60.1282 148.186 60.2458 148.028 60.3971C147.87 60.5484 147.744 60.7303 147.659 60.9316C147.573 61.133 147.529 61.3498 147.529 61.5688C147.529 61.7878 147.573 62.0046 147.659 62.206C147.744 62.4073 147.87 62.5892 148.028 62.7405C148.186 62.8918 148.373 63.0094 148.577 63.0863C148.781 63.1632 148.999 63.1976 149.217 63.1877H167.891C168.109 63.1976 168.327 63.1632 168.531 63.0863C168.736 63.0094 168.923 62.8918 169.08 62.7405C169.238 62.5892 169.364 62.4073 169.45 62.206C169.536 62.0046 169.58 61.7878 169.58 61.5688C169.58 61.3498 169.536 61.133 169.45 60.9316C169.364 60.7303 169.238 60.5484 169.08 60.3971C168.923 60.2458 168.736 60.1282 168.531 60.0513C168.327 59.9744 168.109 59.94 167.891 59.9499H171.118C171.336 59.9599 171.554 59.9254 171.758 59.8486C171.963 59.7717 172.149 59.6541 172.307 59.5028C172.465 59.3515 172.591 59.1696 172.676 58.9682C172.762 58.7669 172.807 58.5501 172.807 58.3311C172.807 58.112 172.762 57.8953 172.676 57.6939C172.591 57.4925 172.465 57.3107 172.307 57.1594C172.149 57.0081 171.963 56.8904 171.758 56.8136C171.554 56.7367 171.336 56.7022 171.118 56.7122Z" fill="#252223"/>
<path opacity="0.1" d="M311.516 3.59075H309.211C309.429 3.60073 309.646 3.56624 309.851 3.48939C310.055 3.41253 310.242 3.29489 310.4 3.14359C310.558 2.99228 310.683 2.81044 310.769 2.60905C310.855 2.40767 310.899 2.19092 310.899 1.97189C310.899 1.75286 310.855 1.53611 310.769 1.33473C310.683 1.13334 310.558 0.9515 310.4 0.800193C310.242 0.648886 310.055 0.531252 309.851 0.454395C309.646 0.377538 309.429 0.343056 309.211 0.35303H290.537C290.121 0.37202 289.73 0.550871 289.442 0.852387C289.155 1.1539 288.995 1.55487 288.995 1.97189C288.995 2.38891 289.155 2.78988 289.442 3.09139C289.73 3.39291 290.121 3.57176 290.537 3.59075H292.842C292.624 3.58078 292.406 3.61526 292.202 3.69212C291.997 3.76897 291.81 3.88661 291.653 4.03792C291.495 4.18923 291.369 4.37106 291.283 4.57245C291.198 4.77384 291.153 4.99059 291.153 5.20962C291.153 5.42864 291.198 5.64539 291.283 5.84678C291.369 6.04817 291.495 6.23001 291.653 6.38131C291.81 6.53262 291.997 6.65025 292.202 6.72711C292.406 6.80397 292.624 6.83845 292.842 6.82848H289.615C289.397 6.8185 289.179 6.85299 288.975 6.92984C288.77 7.0067 288.584 7.12434 288.426 7.27564C288.268 7.42695 288.142 7.60879 288.057 7.81017C287.971 8.01156 287.927 8.22831 287.927 8.44734C287.927 8.66636 287.971 8.88312 288.057 9.0845C288.142 9.28589 288.268 9.46773 288.426 9.61903C288.584 9.77034 288.77 9.88798 288.975 9.96483C289.179 10.0417 289.397 10.0762 289.615 10.0662H308.289C308.704 10.0472 309.096 9.86835 309.383 9.56684C309.67 9.26532 309.831 8.86436 309.831 8.44734C309.831 8.03032 309.67 7.62935 309.383 7.32784C309.096 7.02632 308.704 6.84747 308.289 6.82848H311.516C311.734 6.83845 311.952 6.80397 312.156 6.72711C312.36 6.65025 312.547 6.53262 312.705 6.38131C312.863 6.23001 312.989 6.04817 313.074 5.84678C313.16 5.64539 313.204 5.42864 313.204 5.20962C313.204 4.99059 313.16 4.77384 313.074 4.57245C312.989 4.37106 312.863 4.18923 312.705 4.03792C312.547 3.88661 312.36 3.76897 312.156 3.69212C311.952 3.61526 311.734 3.58078 311.516 3.59075Z" fill="#252223"/>
<path d="M183.69 190.525H183.764C183.764 190.525 172.006 158.104 168.712 153.709C168.712 153.709 165.264 151.665 165.422 148.206L161.19 127.603C161.19 127.603 161.253 127.539 161.36 127.421L161.451 127.32L161.555 127.199C162.119 126.527 162.591 125.781 162.959 124.983L163.026 124.829C163.183 124.467 163.315 124.096 163.421 123.716C163.567 123.768 163.722 123.791 163.877 123.783C164.031 123.775 164.183 123.736 164.323 123.669C164.323 123.669 164.323 123.558 164.323 123.36C164.323 123.36 164.282 122.139 164.279 120.229C164.279 119.698 164.279 119.12 164.279 118.505C164.41 118.031 164.52 117.533 164.614 117.002L164.443 116.921V116.844L164.299 116.776C164.416 112.254 164.798 106.475 165.901 102.538C165.939 102.399 165.979 102.261 166.021 102.124C167.325 97.8242 167.362 92.576 167.697 88.138C167.957 88.6955 168.181 89.2694 168.367 89.856C168.532 89.6696 168.723 89.5077 168.933 89.3752L170.247 99.9222V112.362C170.247 112.362 168.052 128.406 174.938 125.417C181.824 122.428 176.818 111.417 176.818 111.417C176.818 111.417 176.818 105.285 177.759 102.138C178.379 100.067 177.98 93.3694 177.632 89.0256C178.302 89.1432 178.697 89.2374 178.697 89.2374C178.85 88.6071 178.919 87.9593 178.902 87.3109C179.046 80.0588 170.133 68.3754 166.504 63.9173C165.47 62.3258 164.023 61.0472 162.319 60.2189L155.346 56.8299C155.346 56.8299 152.052 56.023 150.769 53.4678C150.769 53.4241 150.745 53.3804 150.735 53.3367C150.88 53.2717 151.023 53.2011 151.164 53.1249C152.229 52.6108 153.162 51.8586 153.892 50.926C155.376 49.0332 156.086 46.6629 156.763 44.3531C157.561 41.6365 158.365 38.8628 158.258 36.0319C158.15 33.201 156.964 30.2591 154.572 28.7562C152.528 27.4719 149.676 27.2298 148.406 25.1722C148.071 24.6175 147.857 23.9585 147.401 23.5113C147.406 23.419 147.377 23.328 147.321 23.2551C147.264 23.1822 147.183 23.1323 147.093 23.1146L143.581 22.422C143.532 22.4122 143.481 22.4123 143.432 22.4222C143.383 22.4322 143.336 22.4517 143.294 22.4798C143.252 22.5079 143.217 22.544 143.189 22.586C143.161 22.628 143.142 22.6751 143.132 22.7246V22.775C139.992 22.8625 136.91 23.6479 134.108 25.0747C133.113 25.5571 132.159 26.1193 131.254 26.7558C129.964 27.6703 128.694 28.884 128.509 30.4541C128.419 31.2375 128.606 32.041 128.449 32.8076C128.023 34.8618 125.279 36.2 125.681 38.2609C125.953 39.6596 127.531 40.2614 129.009 40.2782C128.597 41.7527 128.493 43.2963 128.701 44.813C128.91 46.3298 129.427 47.7874 130.22 49.0952C131.013 50.4031 132.066 51.5332 133.313 52.4156C134.561 53.2979 135.975 53.9136 137.469 54.2243C138.544 55.7424 139.486 57.351 140.284 59.0321C138.478 60.7535 134.695 64.7477 137.014 66.0926L132.188 78.055L132.658 90.3839L130.624 92.2061L131.069 92.7642C128.791 95.427 123.517 101.247 119.66 102.797C119.105 103.02 118.567 103.286 118.051 103.59C117.347 104.039 116.563 104.347 115.743 104.498C115.385 104.537 115.03 104.607 114.684 104.706L113.762 102.79C113.684 102.627 113.574 102.481 113.44 102.36C113.305 102.239 113.148 102.147 112.977 102.087C112.807 102.027 112.626 102.002 112.446 102.012C112.265 102.023 112.089 102.069 111.926 102.148L111.36 102.42L110.02 103.069L109.46 103.341L109.038 103.547C108.71 103.705 108.459 103.988 108.339 104.333C108.219 104.678 108.24 105.057 108.398 105.386L109.514 107.705C107.929 109.108 107.151 110.782 109.313 112.342C110.143 112.951 111.149 113.27 112.178 113.25L112.848 114.658C112.926 114.822 113.036 114.968 113.171 115.088C113.305 115.209 113.463 115.302 113.633 115.361C113.804 115.421 113.984 115.446 114.165 115.436C114.345 115.426 114.521 115.379 114.684 115.301L115.666 114.823L117.569 113.902C117.732 113.823 117.877 113.713 117.998 113.578C118.118 113.443 118.21 113.285 118.27 113.114C118.329 112.943 118.354 112.761 118.344 112.581C118.334 112.4 118.288 112.223 118.209 112.059L117.653 110.9C118.898 109.929 120.039 108.83 121.057 107.621C121.057 107.621 123.919 105.823 125.604 105.419C126.72 105.154 130.63 102.575 133.056 100.941L133.747 119.096C133.594 119.333 133.417 119.551 133.217 119.749L133.757 119.365V119.5C133.684 119.587 133.607 119.67 133.525 119.749L133.76 119.58V119.799C133.684 119.891 133.602 119.979 133.515 120.061L133.763 119.886L133.864 121.793L135.043 119.829L135.117 121.793L135.392 121.336C132.081 126.981 127.769 135.292 125.463 143.653C125.463 143.653 121.858 149.944 122.327 156.392L115.743 188.332L115.87 188.38C113.726 189.933 109.205 192.781 104.772 192.895C104.772 192.895 94.1135 192.579 97.0923 194.939C100.071 197.299 126.562 200.759 126.562 200.759L127.568 192.807L127.802 192.895C127.802 192.895 127.802 192.851 127.802 192.77L128.137 192.895C128.137 192.895 127.497 188.941 129.843 186.739C132.188 184.537 137.68 162.195 137.215 158.742C137.215 158.742 141.423 148.189 146.691 139.773L152.883 155.75L159.779 167.702C159.779 167.702 168.953 188.171 168.658 192.73C166.732 195.084 163.297 198.782 160.72 198.684C160.72 198.684 150.219 200.729 157.43 202.618C164.641 204.508 185.801 197.44 185.801 197.44L183.69 190.525ZM137.784 117.345L137.848 117.308C137.513 117.815 137.178 118.377 136.796 118.989L137.784 117.345Z" fill="url(#paint0_linear_27_2374)"/>
<path d="M133.217 119.755C132.959 119.944 132.818 120.048 132.818 120.048C132.965 119.97 133.099 119.872 133.217 119.755Z" fill="url(#paint1_linear_27_2374)"/>
<path d="M133.529 120.071C133.271 120.26 133.13 120.364 133.13 120.364C133.277 120.286 133.411 120.188 133.529 120.071Z" fill="url(#paint2_linear_27_2374)"/>
<path d="M133.529 119.755C133.271 119.944 133.13 120.048 133.13 120.048C133.277 119.97 133.411 119.872 133.529 119.755Z" fill="url(#paint3_linear_27_2374)"/>
<path d="M169.399 188.867C169.399 188.867 163.897 196.687 160.228 196.533C160.228 196.533 149.988 198.526 157.018 200.365C164.048 202.205 184.678 195.305 184.678 195.305L182.226 187.287L169.399 188.867Z" fill="#333333"/>
<path d="M144.794 134.569L152.588 154.657L159.33 166.327C159.33 166.327 168.575 186.951 167.965 190.938L182.708 188.561C182.708 188.561 171.245 156.957 168.038 152.681C168.038 152.681 164.688 150.687 164.828 147.301L160.704 127.212C160.704 127.212 164.724 123.326 162.473 118.471C162.359 118.222 162.227 117.971 162.077 117.718C158.995 112.503 147.394 115.405 147.394 115.405L144.794 134.569Z" fill="#535461"/>
<path opacity="0.03" d="M144.794 134.569L152.588 154.657L159.33 166.327C159.33 166.327 168.575 186.951 167.965 190.938L182.708 188.561C182.708 188.561 171.245 156.957 168.038 152.681C168.038 152.681 164.688 150.687 164.828 147.301L160.704 127.212C160.704 127.212 164.724 123.326 162.473 118.471C162.359 118.222 162.227 117.971 162.077 117.718C158.995 112.503 147.394 115.405 147.394 115.405L144.794 134.569Z" fill="black"/>
<g opacity="0.1">
<path opacity="0.1" d="M168.025 152.681C168.025 152.681 164.674 150.687 164.815 147.301L160.69 127.213C160.69 127.213 164.711 123.326 162.459 118.471C162.345 118.222 162.214 117.971 162.064 117.718C160.583 115.19 157.085 114.571 153.878 114.608C156.954 114.635 160.191 115.311 161.605 117.718C161.755 117.971 161.886 118.222 162 118.471C164.242 123.339 160.231 127.213 160.231 127.213L164.356 147.311C164.202 150.673 167.566 152.691 167.566 152.691C170.776 156.984 182.236 188.571 182.236 188.571L167.955 190.874C167.955 190.898 167.955 190.925 167.955 190.948L182.698 188.571C182.698 188.571 171.235 156.974 168.025 152.681Z" fill="black"/>
</g>
<path d="M117.746 185.495C117.746 185.495 111.635 190.709 105.684 190.874C105.684 190.874 95.2962 190.568 98.1947 192.868C101.093 195.168 126.924 198.543 126.924 198.543L128.074 189.57L117.746 185.495Z" fill="#333333"/>
<g opacity="0.1">
<path opacity="0.1" d="M140.21 114.191C140.21 114.191 130.124 128.453 126.137 142.867C126.137 142.867 122.622 148.999 123.081 155.286L116.674 186.416L128.442 190.864C128.442 190.864 127.832 187.031 130.118 184.883C132.403 182.735 137.757 160.961 137.302 157.589C137.302 157.589 144.637 139.188 151.971 131.98C159.306 124.772 162.959 123.111 164.034 116.887C164.041 116.887 146.781 108.516 140.21 114.191Z" fill="black"/>
</g>
<path d="M139.895 114.191C139.895 114.191 129.809 128.453 125.822 142.867C125.822 142.867 122.307 148.999 122.766 155.286L116.346 186.416L128.114 190.864C128.114 190.864 127.504 187.031 129.789 184.883C132.075 182.735 137.429 160.961 136.973 157.589C136.973 157.589 144.308 139.188 151.643 131.98C158.978 124.772 162.63 123.111 163.706 116.887C163.736 116.887 146.476 108.516 139.895 114.191Z" fill="#535461"/>
<g opacity="0.1">
<path opacity="0.1" d="M146.419 112.066C153.995 112.157 163.431 116.733 163.431 116.733C162.352 122.956 158.703 124.617 151.368 131.825C144.034 139.034 136.695 157.431 136.695 157.431C137.154 160.793 131.807 182.58 129.511 184.725C127.501 186.594 127.722 189.738 127.806 190.525L128.288 190.706C128.288 190.706 127.678 186.873 129.964 184.725C132.249 182.577 137.613 160.793 137.154 157.431C137.154 157.431 144.489 139.03 151.824 131.822C159.159 124.614 162.811 122.953 163.887 116.729C163.89 116.75 154.066 111.972 146.419 112.066Z" fill="black"/>
</g>
<path d="M132.416 91.9573C132.416 91.9573 125.122 101.072 120.199 103.052C119.658 103.27 119.134 103.529 118.631 103.826C117.944 104.263 117.18 104.563 116.379 104.71C115.79 104.767 115.215 104.919 114.674 105.16C112.114 106.344 106.21 109.531 110.107 112.355C114.995 115.882 121.57 107.756 121.57 107.756C121.57 107.756 124.361 106.001 126.003 105.607C127.645 105.214 135.167 99.939 135.167 99.939L132.416 91.9573Z" fill="#FDA57D"/>
<path d="M133.79 90.1148L130.888 92.7238L135.167 98.0898L133.79 90.1148Z" fill="#4D8AF0"/>
<g opacity="0.1">
<path opacity="0.1" d="M133.79 90.1148L130.888 92.7238L135.167 98.0898L133.79 90.1148Z" fill="black"/>
</g>
<path d="M141.149 59.5936C141.149 59.5936 134.192 65.5748 137.104 67.2592L132.413 78.9123L134.032 121.541L140.663 110.499L136.132 86.578C136.132 86.578 134.839 72.3158 138.558 68.9436L142.117 61.8832L141.149 59.5936Z" fill="#4D8AF0"/>
<g opacity="0.1">
<path opacity="0.1" d="M142.371 59.5936C142.371 59.5936 135.415 65.5748 138.327 67.2592L133.636 78.9123L135.254 121.541L141.886 110.499L137.355 86.578C137.355 86.578 136.062 72.3158 139.781 68.9436L143.34 61.8832L142.371 59.5936Z" fill="black"/>
</g>
<path d="M135.777 53.3131C135.777 53.3131 141.433 60.2122 141.279 64.1997C141.125 68.1872 151.978 57.3006 151.978 57.3006C151.978 57.3006 147.853 52.2406 148.922 46.878C149.991 41.5155 135.777 53.3131 135.777 53.3131Z" fill="#FDA57D"/>
<path d="M168.025 87.9699L169.553 100.238V112.342C169.553 112.342 167.412 127.982 174.137 125.071C180.862 122.159 175.97 111.424 175.97 111.424C175.97 111.424 175.97 105.443 176.888 102.377C177.806 99.3103 176.419 85.8181 176.419 85.8181L168.025 87.9699Z" fill="#FDA57D"/>
<path d="M147.086 58.9884C147.086 58.9884 142.961 62.9759 140.82 61.594L137.885 68.9134C136.091 73.3875 135.277 78.1966 135.499 83.0141L136.545 110.664L141.128 110.052L142.656 83.8278L144.948 67.8812L147.086 58.9884Z" fill="#F2F2F2"/>
<g opacity="0.1">
<path opacity="0.1" d="M150.527 54.7723C150.527 54.7723 145.099 58.5278 143.581 61.7487C143.581 61.7487 143.427 65.2756 142.207 66.8087C140.987 68.3419 139.761 76.0109 139.456 85.2096C139.151 94.4084 137.781 106.677 137.781 106.677C137.781 106.677 135.489 118.636 133.043 119.863C133.043 119.863 144.352 111.276 149.854 114.188C155.356 117.099 161.622 124.156 163.454 123.081C163.454 123.081 163.012 109.632 165.019 102.474C165.057 102.337 165.096 102.204 165.137 102.074C167.278 95.0136 165.901 85.3609 168.347 81.2289C168.347 81.2289 168.347 73.7347 166.936 68.1368C166.571 66.7075 165.899 65.3755 164.967 64.2342C164.036 63.093 162.866 62.1701 161.541 61.5302L154.746 58.2286C154.746 58.2286 151.137 57.6839 150.527 54.7723Z" fill="black"/>
</g>
<g opacity="0.1">
<path opacity="0.1" d="M150.527 54.7723C150.527 54.7723 145.407 58.8371 143.879 62.0547C143.879 62.0547 143.725 65.5815 142.506 67.1147C141.286 68.6478 140.06 76.3168 139.755 85.5156C139.45 94.7143 138.079 106.983 138.079 106.983C138.079 106.983 135.787 118.942 133.341 120.169C133.341 120.169 144.65 111.582 150.152 114.494C155.654 117.405 161.92 124.462 163.753 123.386C163.753 123.386 163.311 109.938 165.318 102.78C165.356 102.643 165.395 102.51 165.435 102.38C167.576 95.3195 166.199 85.6669 168.645 81.5348C168.645 81.5348 168.645 74.0406 167.234 68.4427C166.87 67.0134 166.198 65.6814 165.266 64.5402C164.334 63.3989 163.165 62.476 161.84 61.8362L155.044 58.5346C155.044 58.5346 151.137 57.6839 150.527 54.7723Z" fill="black"/>
</g>
<path d="M150.45 54.695C150.45 54.695 145.407 58.5278 143.88 61.7555C143.88 61.7555 143.725 65.2823 142.506 66.8155C141.286 68.3486 140.06 76.0176 139.755 85.2163C139.45 94.4151 138.079 106.683 138.079 106.683C138.079 106.683 135.787 118.643 133.341 119.87C133.341 119.87 144.65 111.283 150.152 114.194C155.654 117.106 161.91 124.146 163.746 123.084C163.746 123.084 163.304 109.635 165.311 102.477C165.349 102.341 165.388 102.207 165.428 102.077C167.569 95.0169 166.192 85.3643 168.638 81.2322C168.638 81.2322 168.638 73.7381 167.228 68.1401C166.863 66.7108 166.191 65.3789 165.259 64.2376C164.327 63.0964 163.158 62.1734 161.833 61.5336L155.038 58.232C155.038 58.232 151.596 57.378 150.45 54.695Z" fill="#4D8AF0"/>
<g opacity="0.1">
<path opacity="0.1" d="M164.433 63.665C164.433 63.665 179.944 81.3767 177.806 89.8089C177.806 89.8089 169.858 87.9698 167.72 90.4208C167.72 90.4208 166.045 84.7456 160.995 81.528C155.945 78.3104 151.288 57.6838 164.433 63.665Z" fill="black"/>
</g>
<path d="M164.433 63.3592C164.433 63.3592 179.944 81.0708 177.806 89.503C177.806 89.503 169.858 87.664 167.72 90.1149C167.72 90.1149 166.045 84.4397 160.995 81.2221C155.945 78.0046 151.288 57.378 164.433 63.3592Z" fill="#4D8AF0"/>
<g opacity="0.1">
<path opacity="0.1" d="M149.304 50.3242C149.063 49.087 149.264 48.9794 149.532 47.6345C150.601 42.2551 136.39 54.0764 136.39 54.0764C136.39 54.0764 137.181 55.0413 138.163 56.4601C138.887 56.6099 139.625 56.6854 140.364 56.6854C144.251 56.6887 147.384 53.3972 149.304 50.3242Z" fill="black"/>
</g>
<path d="M139.751 55.9188C145.743 55.9188 150.601 51.0447 150.601 45.0322C150.601 39.0198 145.743 34.1457 139.751 34.1457C133.759 34.1457 128.901 39.0198 128.901 45.0322C128.901 51.0447 133.759 55.9188 139.751 55.9188Z" fill="#FDA57D"/>
<g opacity="0.1">
<path opacity="0.1" d="M130.004 42.0533C128.406 42.2685 126.368 41.7171 126.06 40.147C125.671 38.1297 128.345 36.8353 128.761 34.8315C128.915 34.0784 128.731 33.295 128.821 32.5352C129.002 30.9987 130.238 29.8186 131.502 28.9243C135.488 26.1187 140.337 24.8226 145.186 25.2663C145.792 25.274 146.382 25.4611 146.882 25.8042C147.408 26.2379 147.612 26.944 147.971 27.5256C149.211 29.5429 151.992 29.7681 153.982 31.0189C156.328 32.4814 157.47 35.3526 157.574 38.1096C157.678 40.8665 156.904 43.573 156.117 46.2224C155.446 48.475 154.776 50.7881 153.315 52.6306C151.854 54.473 149.465 55.7641 147.19 55.2093C148.232 54.4562 147.475 52.7079 146.346 52.0926C145.216 51.4774 143.816 51.3731 142.851 50.5259C141.886 49.6786 141.598 48.2934 141.283 47.0326C140.887 45.4424 140.311 43.8285 139.155 42.6619C136.88 40.3924 132.788 41.6768 130.004 42.0533Z" fill="black"/>
</g>
<path d="M130.309 41.9021C128.71 42.1173 126.673 41.5659 126.365 39.9958C125.976 37.9785 128.65 36.6841 129.065 34.6803C129.22 33.9272 129.035 33.1438 129.126 32.384C129.307 30.8475 130.543 29.6674 131.806 28.7731C135.793 25.9675 140.642 24.6714 145.491 25.1151C146.097 25.1228 146.686 25.3099 147.186 25.653C147.713 26.0867 147.917 26.7928 148.275 27.3744C149.515 29.3917 152.296 29.617 154.287 30.8677C156.632 32.3302 157.775 35.2014 157.879 37.9584C157.983 40.7153 157.209 43.4218 156.421 46.0712C155.751 48.3238 155.081 50.6369 153.62 52.4794C152.159 54.3218 149.77 55.6129 147.495 55.0581C148.537 54.305 147.78 52.5567 146.65 51.9414C145.521 51.3262 144.12 51.2219 143.155 50.3747C142.19 49.5274 141.906 48.1422 141.571 46.8814C141.175 45.2912 140.599 43.6773 139.443 42.5107C137.188 40.2379 133.093 41.5256 130.309 41.9021Z" fill="#72351C"/>
<path d="M146.302 30.8542L147.284 25.811C147.293 25.7626 147.294 25.7128 147.284 25.6644C147.274 25.616 147.255 25.57 147.228 25.529C147.2 25.4881 147.165 25.453 147.124 25.4258C147.083 25.3986 147.037 25.3798 146.989 25.3705L143.521 24.6981C143.473 24.6884 143.423 24.6883 143.375 24.6979C143.326 24.7075 143.281 24.7266 143.24 24.7541C143.199 24.7817 143.164 24.817 143.137 24.8582C143.11 24.8994 143.091 24.9455 143.082 24.994L142.1 30.0372L138.749 42.5039L144.898 43.7075L146.302 30.8542Z" fill="#CBDAE3"/>
<g opacity="0.1">
<path opacity="0.1" d="M141.202 50.6301C144.156 50.6301 146.55 48.2277 146.55 45.2642C146.55 42.3007 144.156 39.8983 141.202 39.8983C138.249 39.8983 135.854 42.3007 135.854 45.2642C135.854 48.2277 138.249 50.6301 141.202 50.6301Z" fill="black"/>
</g>
<path d="M141.202 50.7815C144.156 50.7815 146.55 48.3791 146.55 45.4156C146.55 42.452 144.156 40.0496 141.202 40.0496C138.249 40.0496 135.854 42.452 135.854 45.4156C135.854 48.3791 138.249 50.7815 141.202 50.7815Z" fill="#CBDAE3"/>
<path d="M141.202 48.9323C143.138 48.9323 144.707 47.3578 144.707 45.4155C144.707 43.4733 143.138 41.8988 141.202 41.8988C139.266 41.8988 137.697 43.4733 137.697 45.4155C137.697 47.3578 139.266 48.9323 141.202 48.9323Z" fill="#E9E9E9"/>
<path d="M141.202 46.4881C141.793 46.4881 142.271 46.0079 142.271 45.4156C142.271 44.8232 141.793 44.343 141.202 44.343C140.612 44.343 140.133 44.8232 140.133 45.4156C140.133 46.0079 140.612 46.4881 141.202 46.4881Z" fill="#F48681"/>
<path opacity="0.05" d="M146.391 30.3966L142.191 29.5737L142.162 29.7255L146.362 30.5484L146.391 30.3966Z" fill="black"/>
<path d="M110.969 103.24L110.966 103.242C109.674 103.867 109.132 105.424 109.754 106.721L113.008 113.492C113.631 114.789 115.183 115.333 116.475 114.708L116.478 114.706C117.77 114.081 118.313 112.524 117.69 111.228L114.436 104.456C113.813 103.16 112.261 102.615 110.969 103.24Z" fill="#CBDAE3"/>
<g opacity="0.1">
<path opacity="0.1" d="M110.969 103.24L110.966 103.242C109.674 103.867 109.132 105.424 109.754 106.721L113.008 113.492C113.631 114.789 115.183 115.333 116.475 114.708L116.478 114.706C117.77 114.081 118.313 112.524 117.69 111.228L114.436 104.456C113.813 103.16 112.261 102.615 110.969 103.24Z" fill="black"/>
</g>
<path d="M115.019 104.259C114.378 102.925 112.78 102.364 111.449 103.008C110.119 103.651 109.561 105.255 110.202 106.59L113.389 113.222C114.03 114.557 115.629 115.117 116.959 114.474C118.289 113.83 118.847 112.227 118.206 110.892L115.019 104.259Z" fill="#CBDAE3"/>
<path d="M113.664 102.957L110.024 104.718L114.205 113.419L117.845 111.658L113.664 102.957Z" fill="#F2F2F2"/>
<path d="M116.825 114.025C117.054 113.914 117.12 113.578 116.974 113.274C116.828 112.969 116.524 112.812 116.296 112.922C116.067 113.033 116.001 113.369 116.147 113.674C116.293 113.978 116.597 114.135 116.825 114.025Z" fill="#F2F2F2"/>
</g>
<defs>
<linearGradient id="paint0_linear_27_2374" x1="96.5529" y1="112.681" x2="185.801" y2="112.681" gradientUnits="userSpaceOnUse">
<stop stop-color="#808080" stop-opacity="0.25"/>
<stop offset="0.54" stop-color="#808080" stop-opacity="0.12"/>
<stop offset="1" stop-color="#808080" stop-opacity="0.1"/>
</linearGradient>
<linearGradient id="paint1_linear_27_2374" x1="339.718" y1="256.166" x2="340.192" y2="256.166" gradientUnits="userSpaceOnUse">
<stop stop-color="#808080" stop-opacity="0.25"/>
<stop offset="0.54" stop-color="#808080" stop-opacity="0.12"/>
<stop offset="1" stop-color="#808080" stop-opacity="0.1"/>
</linearGradient>
<linearGradient id="paint2_linear_27_2374" x1="340.401" y1="256.758" x2="340.879" y2="256.758" gradientUnits="userSpaceOnUse">
<stop stop-color="#808080" stop-opacity="0.25"/>
<stop offset="0.54" stop-color="#808080" stop-opacity="0.12"/>
<stop offset="1" stop-color="#808080" stop-opacity="0.1"/>
</linearGradient>
<linearGradient id="paint3_linear_27_2374" x1="340.401" y1="256.166" x2="340.879" y2="256.166" gradientUnits="userSpaceOnUse">
<stop stop-color="#808080" stop-opacity="0.25"/>
<stop offset="0.54" stop-color="#808080" stop-opacity="0.12"/>
<stop offset="1" stop-color="#808080" stop-opacity="0.1"/>
</linearGradient>
<clipPath id="clip0_27_2374">
<rect width="320" height="228.792" fill="white"/>
</clipPath>
</defs>
</svg>
